HIERARCHY
ROOT Hips
{
	OFFSET 0.00000 0.00000 0.00000
	CHANNELS 6 Xposition Yposition Zposition Zrotation Yrotation Xrotation 
	JOINT RightUpLegDummy
	{
		OFFSET 0 0 0
		CHANNELS 3 Zrotation Yrotation Xrotation
		JOINT RightUpLeg
		{
			OFFSET -3.52197 -3.41223 0.04002
			CHANNELS 3 Zrotation Yrotation Xrotation
			JOINT RightLeg
			{
				OFFSET -1.06336 -17.58347 1.60435
				CHANNELS 3 Zrotation Yrotation Xrotation
				JOINT RightFoot
				{
					OFFSET -0.27018 -17.05419 -1.63900
					CHANNELS 3 Zrotation Yrotation Xrotation
					JOINT RightToes
					{
						OFFSET 0.00298 -1.73825 3.34613
						CHANNELS 3 Zrotation Yrotation Xrotation
						End Site
						{
							OFFSET 0.00480 -0.05416 3.85043
						}
					}
				}
			}
		}
	}
	JOINT SpineDummy
	{
		OFFSET 0 0 0
		CHANNELS 3 Zrotation Yrotation Xrotation
		JOINT Spine
		{
			OFFSET 0.00000 4.14613 0.00000
			CHANNELS 3 Zrotation Yrotation Xrotation
			JOINT Spine1
			{
				OFFSET 0.00000 10.93369 0.05002
				CHANNELS 3 Zrotation Yrotation Xrotation
				JOINT HEadDummy
				{
					OFFSET 0 0 0
					CHANNELS 3 Zrotation Yrotation Xrotation
					JOINT Head
					{
						OFFSET 0.00000 5.52901 0.00438
						CHANNELS 3 Zrotation Yrotation Xrotation
						End Site
						{
							OFFSET -0.11417 7.29012 0.98962
						}
					}
				}
				JOINT LeftShoulder1Dummy
				{
					OFFSET 0 0 0
					CHANNELS 3 Zrotation Yrotation Xrotation
					JOINT LeftShoulder1
					{
						OFFSET 3.53937 -0.14262 -0.08662
						CHANNELS 3 Zrotation Yrotation Xrotation
						JOINT LeftArm
						{
							OFFSET 4.04833 -0.00133 0.12681
							CHANNELS 3 Zrotation Yrotation Xrotation
							JOINT LeftForeArm
							{
								OFFSET 9.67557 0.03289 -0.56117
								CHANNELS 3 Zrotation Yrotation Xrotation
								JOINT LeftHand
								{
									OFFSET 10.17679 0.06873 0.40307
									CHANNELS 3 Zrotation Yrotation Xrotation
									End Site
									{
										OFFSET 6.59293 -0.21483 0.59213
									}
								}
							}
						}
					}
				}
				JOINT RightShoulderDummy
				{
					OFFSET 0 0 0
					CHANNELS 3 Zrotation Yrotation Xrotation
					JOINT RightShoulder
					{
						OFFSET -3.53937 -0.14262 -0.08660
						CHANNELS 3 Zrotation Yrotation Xrotation
						JOINT RightArm
						{
							OFFSET -4.04833 -0.00132 0.12683
							CHANNELS 3 Zrotation Yrotation Xrotation
							JOINT RightForeArm
							{
								OFFSET -9.67570 0.03289 -0.56114
								CHANNELS 3 Zrotation Yrotation Xrotation
								JOINT RightHand
								{
									OFFSET -10.17679 0.06867 0.40304
									CHANNELS 3 Zrotation Yrotation Xrotation
									End Site
									{
										OFFSET -6.54841 -0.21495 0.59212
									}
								}
							}
						}
					}
				}
			}
		}
	}
	JOINT LeftUpLegDummy
	{
		OFFSET 0 0 0
		CHANNELS 3 Zrotation Yrotation Xrotation
		JOINT LeftUpLeg
		{
			OFFSET 3.52197 -3.41223 0.04002
			CHANNELS 3 Zrotation Yrotation Xrotation
			JOINT LeftLeg
			{
				OFFSET 1.08359 -17.35354 1.60336
				CHANNELS 3 Zrotation Yrotation Xrotation
				JOINT LeftFoot
				{
					OFFSET 0.24986 -17.28405 -1.63802
					CHANNELS 3 Zrotation Yrotation Xrotation
					JOINT LeftToes
					{
						OFFSET -0.01575 -1.73822 3.34610
						CHANNELS 3 Zrotation Yrotation Xrotation
						End Site
						{
							OFFSET 0.03150 -0.01868 3.85031
						}
					}
				}
			}
		}
	}
}
MOTION
Frames: 19
Frame Time: 0.033333
13.7962 40.4739 2.8417 -179.4820 -36.9426 177.6490 0.0000 0.0000 0.0000 -3.4633 0.7577 -5.4676 -1.7306 1.4185 13.0943 -0.3176 0.1026 -5.5408 0.0000 0.0000 -0.0000 0.0000 0.0000 0.0000 6.2217 -0.5885 -5.6690 -11.2644 2.3759 12.9060 0.0000 0.0000 0.0000 4.0868 18.5151 1.5932 0.0000 0.0000 0.0000 -8.3860 -2.9743 1.2652 18.8079 -32.6354 -68.6178 1.7043 -51.7948 31.8325 14.9091 -7.0019 -1.4589 0.0000 0.0000 0.0000 -1.5310 -0.8409 0.2197 -45.7238 87.7366 -89.7735 -5.3691 84.8225 15.5366 -17.5864 10.1583 -2.1985 0.0000 0.0000 0.0000 11.5967 44.7322 -0.2787 6.3133 9.0182 17.9362 -4.9866 0.3748 -1.7446 0.0000 -0.0000 0.0000
13.9071 40.4428 2.6753 -179.3700 -36.8690 177.2170 0.0000 0.0000 0.0000 -3.0298 0.4491 -5.2848 -1.6664 1.7354 13.7314 -0.8940 0.1331 -6.0403 0.0000 0.0000 -0.0000 0.0000 0.0000 0.0000 6.5259 -0.6800 -5.0575 -11.0200 2.3455 12.8138 0.0000 0.0000 0.0000 3.9945 18.4578 1.6916 0.0000 0.0000 0.0000 -8.4133 -2.9062 1.2555 18.4759 -32.2061 -68.8132 1.7735 -53.6069 31.9604 14.6373 -6.9707 -1.4274 0.0000 0.0000 0.0000 -1.4344 -0.7530 0.2301 -39.3238 88.0138 -83.3808 -5.0333 84.5993 15.5857 -17.4354 9.6114 -2.0987 0.0000 0.0000 0.0000 12.5813 44.7353 -1.2832 6.5440 8.0896 20.8072 -3.8339 0.3577 0.1401 0.0000 -0.0000 0.0000
14.0959 40.3330 2.3773 -179.1700 -37.0961 176.4790 0.0000 0.0000 0.0000 -2.3213 -0.0653 -5.2287 -1.6185 1.9046 15.5069 -1.7618 0.1715 -7.2883 0.0000 0.0000 -0.0000 0.0000 0.0000 0.0000 6.9870 -1.0113 -3.9163 -10.6234 2.1401 12.4760 0.0000 0.0000 0.0000 3.9590 18.6666 1.7929 0.0000 0.0000 0.0000 -8.4545 -2.8691 1.2519 18.1889 -31.4535 -68.9921 1.9204 -56.6027 32.0038 14.4517 -6.7688 -1.3844 0.0000 0.0000 0.0000 -1.1832 -0.5638 0.2544 -20.5477 88.3704 -64.6363 -4.4876 84.2742 15.4410 -17.3482 9.1162 -2.0158 0.0000 0.0000 0.0000 14.0762 43.0826 -3.6519 5.8884 5.5788 26.3520 0.4596 -0.0052 4.6003 0.0000 -0.0000 0.0000
14.2393 40.2046 2.1020 -178.8700 -37.6651 175.6750 0.0000 0.0000 0.0000 -1.6498 -0.5073 -5.0807 -1.6854 1.6609 17.2340 -2.3392 0.1846 -8.5589 0.0000 0.0000 -0.0000 0.0000 0.0000 0.0000 7.4743 -1.4787 -2.8720 -10.2685 1.7965 12.1763 0.0000 0.0000 0.0000 4.1850 18.4976 1.9670 0.0000 0.0000 0.0000 -8.5256 -2.8974 1.2614 18.3043 -30.8439 -69.0955 2.0508 -59.1384 31.7899 14.2380 -6.5572 -1.3381 0.0000 0.0000 0.0000 -0.9723 -0.4103 0.2750 0.4721 88.4860 -43.6578 -4.0917 84.1399 15.0693 -17.1807 9.0136 -1.9807 0.0000 0.0000 0.0000 15.3656 40.9149 -5.9624 2.6268 0.3038 30.8989 4.1854 -0.5578 7.7580 0.0000 -0.0000 0.0000
14.3014 40.1677 1.8742 -178.7900 -38.1239 175.1230 0.0000 0.0000 0.0000 -1.3003 -0.7325 -4.4855 -1.7980 1.3674 17.7689 -2.6543 0.1865 -9.1687 0.0000 0.0000 -0.0000 0.0000 0.0000 0.0000 7.6054 -1.7672 -2.3641 -10.1224 1.5693 12.2445 0.0000 0.0000 0.0000 4.2816 18.1090 2.1702 0.0000 0.0000 0.0000 -8.6722 -2.9503 1.2802 18.5373 -30.6390 -69.2135 2.1360 -60.9124 31.4883 13.8676 -6.5254 -1.2982 0.0000 0.0000 0.0000 -0.8759 -0.3630 0.2828 12.5737 88.4493 -31.4863 -4.0105 84.3385 14.6188 -16.9073 8.9492 -1.9387 0.0000 0.0000 0.0000 16.2199 39.6183 -7.0815 -1.8574 -5.5533 32.4162 4.0221 -0.5273 6.4684 0.0000 -0.0000 0.0000
14.2799 40.2055 1.6707 -178.9420 -38.2015 174.9780 0.0000 0.0000 0.0000 -1.2417 -0.7901 -3.7694 -1.8292 1.3205 17.4603 -2.8713 0.1888 -9.2755 0.0000 0.0000 -0.0000 0.0000 0.0000 0.0000 7.5855 -1.7512 -2.4439 -10.1364 1.5954 12.5671 0.0000 0.0000 0.0000 4.1642 17.7112 2.6127 0.0000 0.0000 0.0000 -8.8743 -3.0108 1.3042 18.4232 -30.7399 -69.2606 2.2387 -62.4935 31.4207 13.6036 -6.5712 -1.2776 0.0000 0.0000 0.0000 -0.7568 -0.3610 0.2857 21.1764 88.3123 -22.6319 -4.2213 84.7820 14.1456 -16.7028 8.7756 -1.8899 0.0000 0.0000 0.0000 16.5895 39.8632 -7.0456 -4.3162 -9.6050 30.1378 1.4871 -0.1357 2.9428 0.0000 -0.0000 0.0000
14.1902 40.2595 1.4924 -179.1250 -38.0611 175.2290 0.0000 0.0000 0.0000 -1.3267 -0.9054 -3.3345 -1.7721 1.5195 16.8790 -2.9644 0.1905 -9.2426 0.0000 0.0000 -0.0000 0.0000 0.0000 0.0000 7.6398 -1.5969 -2.8711 -10.2024 1.7037 12.7226 0.0000 0.0000 0.0000 3.9317 17.4551 3.2653 0.0000 0.0000 0.0000 -9.0726 -3.0871 1.3310 17.9026 -30.8175 -69.0427 2.3909 -64.2185 31.5531 13.5315 -6.5212 -1.2649 0.0000 0.0000 0.0000 -0.5766 -0.3481 0.2857 32.0523 88.1025 -11.4461 -4.5046 85.2459 13.6267 -16.6063 8.7818 -1.8793 0.0000 0.0000 0.0000 16.2366 41.2927 -6.4704 -3.1249 -10.4399 23.9732 -0.2244 0.0495 1.5294 0.0000 -0.0000 0.0000
14.0564 40.3320 1.3724 -179.3020 -37.9156 175.7580 0.0000 0.0000 0.0000 -1.5468 -1.2013 -3.0744 -1.6660 1.9014 15.9246 -2.9179 0.1919 -9.0256 0.0000 0.0000 -0.0000 0.0000 0.0000 0.0000 7.5750 -1.4734 -3.3372 -10.2755 1.6941 12.5712 0.0000 0.0000 0.0000 3.5011 17.3441 3.6812 0.0000 0.0000 0.0000 -9.2682 -3.1783 1.3604 17.3428 -30.6575 -68.6176 2.5349 -65.8528 31.4117 13.3274 -6.4307 -1.2351 0.0000 0.0000 0.0000 -0.5078 -0.3552 0.2846 43.3653 87.9867 0.0605 -4.6199 85.6054 13.0534 -16.6171 9.0068 -1.9119 0.0000 0.0000 0.0000 16.1041 38.2911 -4.6987 -0.4563 -3.0089 14.5341 -1.4852 0.2151 2.6345 0.0000 -0.0000 0.0000
13.8524 40.3808 1.3529 -179.3350 -37.7550 176.2100 0.0000 0.0000 0.0000 -1.8363 -1.5421 -2.9210 -1.5192 2.4319 15.0328 -2.7425 0.1910 -8.7616 0.0000 0.0000 -0.0000 0.0000 0.0000 0.0000 7.6569 -1.4052 -3.6236 -10.3189 1.6182 12.3791 0.0000 0.0000 0.0000 2.7737 17.2390 3.5476 0.0000 0.0000 0.0000 -9.4934 -3.2720 1.3928 17.0658 -30.3462 -68.3312 2.6142 -67.1591 30.8144 12.9235 -6.3882 -1.1915 0.0000 0.0000 0.0000 -0.6099 -0.3943 0.2841 51.7186 88.0529 8.5076 -4.5510 85.9113 12.4097 -16.8829 9.0276 -1.9467 0.0000 0.0000 0.0000 17.8168 22.3674 -0.7220 -0.6795 17.7837 3.4905 -4.0854 0.5650 3.5315 0.0000 -0.0000 0.0000
13.5491 40.3676 1.4244 -179.0500 -37.4784 176.3220 0.0000 0.0000 0.0000 -2.0602 -1.6984 -2.8584 -1.3677 2.9536 14.6170 -2.3644 0.1843 -8.6736 0.0000 0.0000 -0.0000 0.0000 0.0000 0.0000 8.2523 -1.3267 -3.7196 -10.3955 1.6062 12.3382 0.0000 0.0000 0.0000 1.9356 17.0510 3.0647 0.0000 0.0000 0.0000 -9.7009 -3.3417 1.4199 17.0053 -30.1052 -68.3850 2.6720 -68.2401 30.1887 12.7055 -6.2640 -1.1576 0.0000 0.0000 0.0000 -0.6804 -0.4043 0.2863 54.3519 88.1858 11.3086 -4.3898 86.2262 11.7068 -17.3842 8.6804 -1.9566 0.0000 0.0000 0.0000 16.6472 15.5966 0.3663 -0.9157 24.0268 -4.6622 -7.0246 0.9684 3.8960 0.0000 -0.0000 0.0000
13.1850 40.3058 1.5484 -178.2500 -37.0246 176.0370 0.0000 0.0000 0.0000 -1.9565 -1.4836 -2.8371 -1.3035 3.2009 14.4189 -1.7843 0.1725 -8.7260 0.0000 0.0000 -0.0000 0.0000 0.0000 0.0000 9.1449 -1.1759 -3.6850 -10.2898 1.6260 12.3897 0.0000 0.0000 0.0000 1.2732 16.8938 2.5825 0.0000 0.0000 0.0000 -9.8114 -3.3552 1.4301 16.8569 -30.0255 -68.6090 2.7690 -69.3431 29.8115 12.7725 -5.9484 -1.1309 0.0000 0.0000 0.0000 -0.5659 -0.3623 0.2938 52.2265 88.2442 9.4721 -4.1085 86.5225 11.0171 -17.7217 8.3789 -1.9515 0.0000 0.0000 0.0000 15.2563 12.9986 -0.8691 0.8331 19.3678 -6.5109 -7.4672 1.1536 5.6148 0.0000 -0.0000 0.0000
12.8355 40.2588 1.6933 -177.4930 -36.3118 175.7530 0.0000 0.0000 0.0000 -1.8495 -0.7264 -2.7936 -1.3550 3.1407 14.0714 -1.1760 0.1603 -8.6654 0.0000 0.0000 -0.0000 0.0000 0.0000 0.0000 9.0694 -0.9011 -3.4887 -9.5651 1.6357 12.4697 0.0000 0.0000 0.0000 0.9103 16.8956 2.1718 0.0000 0.0000 0.0000 -9.8632 -3.3307 1.4293 16.4878 -30.0226 -68.7595 2.8926 -70.6357 29.3147 12.7503 -5.5912 -1.0916 0.0000 0.0000 0.0000 -0.3581 -0.3278 0.3045 52.0805 88.1575 9.5486 -3.6978 86.8080 10.3717 -17.6492 8.4552 -1.9557 0.0000 0.0000 0.0000 14.4301 11.8597 -2.1931 1.8875 11.5550 -5.7920 -4.9272 1.0301 9.6595 0.0000 -0.0000 0.0000
12.4767 40.1971 1.8661 -177.2410 -35.1066 175.6190 0.0000 0.0000 0.0000 -2.1655 0.6240 -2.9768 -1.3532 3.1267 14.3066 -0.5423 0.1478 -8.6806 0.0000 0.0000 -0.0000 0.0000 0.0000 0.0000 7.9920 -0.3807 -3.0147 -8.1749 1.8385 12.6435 0.0000 0.0000 0.0000 0.8797 17.0010 1.7318 0.0000 0.0000 0.0000 -9.9705 -3.3408 1.4387 16.0994 -29.9642 -68.8049 3.0263 -72.1743 28.4268 12.5119 -5.3560 -1.0462 0.0000 0.0000 0.0000 -0.1618 -0.3129 0.3130 58.1120 87.8239 15.5418 -3.3338 87.1874 9.7193 -17.4603 8.6846 -1.9713 0.0000 0.0000 0.0000 14.2823 12.4835 -3.1609 1.4496 6.8844 -3.4013 -2.9494 0.7740 11.9369 0.0000 -0.0000 0.0000
12.0749 40.1558 2.0636 -177.7720 -33.2937 175.7590 0.0000 0.0000 0.0000 -3.2441 2.2941 -3.2025 -1.1950 3.4828 14.7209 0.3653 0.1274 -8.5833 0.0000 0.0000 -0.0000 0.0000 0.0000 0.0000 6.6582 0.3911 -2.3563 -7.3006 2.5090 12.9159 0.0000 0.0000 0.0000 1.1043 17.1401 1.2513 0.0000 0.0000 0.0000 -10.1448 -3.3922 1.4605 15.8876 -29.7826 -68.7599 3.2354 -73.9444 27.5194 12.2523 -5.1701 -1.0049 0.0000 0.0000 0.0000 0.0864 -0.2240 0.3307 67.1121 87.1704 24.3022 -3.1388 87.6504 9.0754 -17.4373 8.7554 -1.9735 0.0000 0.0000 0.0000 14.2673 13.6858 -3.5973 0.5772 7.5006 -0.3055 -2.6480 0.6641 10.7995 0.0000 -0.0000 0.0000
11.6181 40.1714 2.2876 -178.6640 -31.0128 176.2190 0.0000 0.0000 0.0000 -4.8259 3.7284 -3.4784 -0.8745 4.3582 14.5023 1.4427 0.0911 -8.0973 0.0000 0.0000 -0.0000 0.0000 0.0000 0.0000 5.9744 1.2780 -1.8800 -7.8472 3.6299 13.1616 0.0000 0.0000 0.0000 1.2204 17.4286 0.8177 0.0000 0.0000 0.0000 -10.3265 -3.3730 1.4697 15.6980 -29.5083 -68.5021 3.5894 -75.8039 26.8955 11.9359 -4.9310 -0.9547 0.0000 0.0000 0.0000 0.4245 -0.0048 0.3651 75.3084 86.4154 32.3125 -2.8323 87.9506 8.7194 -17.3756 8.7522 -1.9661 0.0000 0.0000 0.0000 13.7390 14.2686 -3.5185 0.3216 10.2239 1.7513 -2.1207 0.5059 9.0974 0.0000 -0.0000 0.0000
11.1346 40.2114 2.5340 -179.1840 -28.4439 176.9870 0.0000 0.0000 0.0000 -6.2105 4.6088 -4.3944 -0.3737 5.7384 13.9830 2.0203 0.0465 -7.1732 0.0000 0.0000 -0.0000 0.0000 0.0000 0.0000 6.1627 2.2323 -1.9380 -9.1482 4.9219 13.3227 0.0000 0.0000 0.0000 0.8749 18.0050 0.5051 0.0000 0.0000 0.0000 -10.5589 -3.2190 1.4572 15.2874 -29.2040 -68.0132 3.9986 -77.4178 26.3153 11.5128 -4.7163 -0.8992 0.0000 0.0000 0.0000 0.7064 0.2476 0.4018 82.6919 85.8821 39.7308 -2.2907 87.8953 8.8383 -17.0737 8.8363 -1.9424 0.0000 0.0000 0.0000 12.8564 14.1316 -3.7827 0.7037 12.5729 3.1226 -0.8912 0.2770 8.5802 0.0000 -0.0000 0.0000
10.6815 40.2614 2.7746 -179.2240 -25.7496 177.9880 0.0000 0.0000 0.0000 -7.0507 5.0005 -6.0381 0.1522 7.0654 13.6032 1.9704 0.0020 -5.7828 0.0000 0.0000 -0.0000 0.0000 0.0000 0.0000 6.6060 3.2756 -2.4776 -10.1099 6.1712 13.5019 0.0000 0.0000 0.0000 0.2442 18.7730 0.2771 0.0000 0.0000 0.0000 -10.8929 -3.0407 1.4448 14.7772 -28.8409 -67.5459 4.2930 -78.4645 25.7630 11.3758 -4.6349 -0.8806 0.0000 0.0000 0.0000 0.7986 0.3886 0.4201 89.7794 85.6033 47.0281 -1.9964 87.6104 9.0834 -16.8150 8.8833 -1.9183 0.0000 0.0000 0.0000 12.1512 13.8867 -4.2664 1.2751 15.0271 3.8981 -0.3433 0.1804 8.4024 0.0000 -0.0000 0.0000
10.2916 40.3232 2.9797 -179.1690 -23.2931 178.9260 0.0000 0.0000 0.0000 -7.5054 4.8477 -7.6183 0.2607 7.2408 13.0726 2.2144 -0.0580 -4.4203 0.0000 0.0000 -0.0000 0.0000 0.0000 0.0000 6.8066 4.2454 -3.0434 -10.5829 7.2514 13.7620 0.0000 0.0000 0.0000 -0.2035 19.4627 -0.0213 0.0000 0.0000 0.0000 -11.1707 -2.9665 1.4426 14.5660 -28.3584 -67.3262 4.4852 -78.8317 25.8727 11.7095 -4.6935 -0.9132 0.0000 0.0000 0.0000 0.7846 0.3991 0.4212 95.9386 85.4583 53.4644 -1.9599 87.2989 9.3181 -16.9033 8.7227 -1.9061 0.0000 0.0000 0.0000 11.6299 13.6333 -4.4320 1.8472 18.1322 4.0210 -0.8210 0.2433 7.5887 0.0000 -0.0000 0.0000
9.9806 40.3674 3.1368 -179.3280 -21.6913 179.5240 0.0000 0.0000 0.0000 -7.9285 4.2451 -8.4895 -0.1782 5.6278 12.5509 3.2173 -0.1203 -4.2569 0.0000 0.0000 -0.0000 0.0000 0.0000 0.0000 6.5511 4.8327 -3.2922 -10.8766 7.9330 14.0382 0.0000 0.0000 0.0000 -0.3850 19.8863 -0.4467 0.0000 0.0000 0.0000 -11.1894 -2.9694 1.4441 14.8925 -27.9550 -67.3114 4.5449 -78.3394 27.1462 11.9101 -4.9495 -0.9542 0.0000 0.0000 0.0000 0.8073 0.3779 0.4216 100.8211 85.4718 58.6436 -1.7350 86.9183 9.5426 -17.1185 8.4780 -1.8964 0.0000 0.0000 0.0000 10.8858 12.9907 -4.3412 2.4991 20.7288 3.8534 -1.3092 0.3032 6.8335 0.0000 -0.0000 0.0000
